<?xml version="1.0" encoding="UTF-8" standalone="no"?>
<svg width="32" height="32" viewBox="0 0 32 32" fill="none" xmlns="http://www.w3.org/2000/svg">
    <defs>
        <linearGradient id="blue-gradient" x1="15%" y1="15%" x2="85%" y2="85%">
            <stop offset="0%" stop-color="#4584B7" />
            <stop offset="100%" stop-color="#306998" />
        </linearGradient>
        <linearGradient id="yellow-gradient" x1="15%" y1="15%" x2="85%" y2="85%">
            <stop offset="0%" stop-color="#FFE052" />
            <stop offset="100%" stop-color="#FFD43B" />
        </linearGradient>
    </defs>

    <!-- 蓝色部分 -->
    <path
        d="M15.864 0.0089785C7.75919 0.0089785 8.28296 3.52084 8.28296 3.52084L8.29037 7.35364H15.9935V8.47943H5.21643C5.21643 8.47943 0.00859253 7.90328 0.00859253 16.0274C0.00859253 24.1515 4.55031 23.8622 4.55031 23.8622H7.26649V19.8282C7.26649 19.8282 7.11398 15.2824 11.7402 15.2824H19.387C19.387 15.2824 23.747 15.355 23.747 11.0523V4.15959C23.747 4.15959 24.386 0.0089785 15.864 0.0089785ZM11.654 2.47039C12.4618 2.47039 13.117 3.12539 13.117 3.93305C13.117 4.74072 12.4618 5.39572 11.654 5.39572C10.8462 5.39572 10.191 4.74072 10.191 3.93305C10.191 3.12539 10.8462 2.47039 11.654 2.47039Z"
        fill="url(#blue-gradient)" />

    <!-- 黄色部分 -->
    <path
        d="M16.0544 31.9911C24.1599 31.9911 23.6361 28.4792 23.6361 28.4792L23.6287 24.6464H15.9256V23.5206H26.7027C26.7027 23.5206 31.9105 24.0968 31.9105 15.9726C31.9105 7.84854 27.3688 8.13783 27.3688 8.13783H24.6526V12.1718C24.6526 12.1718 24.8051 16.7176 20.1789 16.7176H12.5321C12.5321 16.7176 8.17214 16.645 8.17214 20.9477V27.8404C8.17214 27.8404 7.53312 31.9911 16.0544 31.9911ZM20.2651 29.5297C19.4573 29.5297 18.8021 28.8747 18.8021 28.067C18.8021 27.2593 19.4573 26.6043 20.2651 26.6043C21.0729 26.6043 21.7281 27.2593 21.7281 28.067C21.7281 28.8747 21.0729 29.5297 20.2651 29.5297Z"
        fill="url(#yellow-gradient)" />
</svg> 