<svg t="1744298184323" class="icon" viewBox="0 0 1024 1024" version="1.1"
    xmlns="http://www.w3.org/2000/svg" p-id="6474" width="300" height="300">
    <path
        d="M641.530889 792.943905s-69.67617-42.014669-122.831651-7.940748c-53.151383 34.082116 42.719421-6.957374 122.831651 7.940748z"
        fill="#FFF3D6" p-id="6475"></path>
    <path
        d="M636.21657 839.830374s16.119145 37.683724-8.903636 62.702407h-16.791117c0.004097 0 25.104728-33.233956 25.694753-62.702407z"
        fill="#E4BA74" p-id="6476"></path>
    <path
        d="M611.296225 794.767245s55.786007 39.126007-55.228762 72.167385c-0.004097 0.004097 130.559334-17.835952 55.228762-72.167385zM620.974267 233.026941c-18.089991-49.24247-63.759534-82.791925-26.272484-59.989932 0 0 68.737867 39.994654 58.73613 121.225472 0 0.004097-1.249705 23.752588-32.463646-61.23554z"
        fill="#FAE5B6" p-id="6477"></path>
    <path
        d="M530.471048 850.299214c29.656931 35.872677 66.004906 56.097409 170.99241 63.796411 181.621047 13.316528 209.102263-73.785855 167.980825-63.833288-110.084661 26.628958-136.93078-78.510149-242.106764-78.510149-105.167789-0.004097-117.845123 53.180065-96.866471 78.547026z"
        fill="#F8D584" p-id="6478"></path>
    <path
        d="M549.36003 871.040218c28.161383 26.145465 61.698546 41.928624 161.384023 47.542052 172.467471 9.69853 190.954909-91.502983 158.70023-68.319933-134.292059 96.52229-128.236112-36.450409-228.105972-36.450409-99.865762 0.012292-111.899806 38.753144-91.978281 57.22829z"
        fill="#F2C16F" p-id="6479"></path>
    <path
        d="M523.251441 856.273213c30.931221 37.413297 66.709657 59.043435 177.527752 67.172663 124.003505 9.092115 178.384107-28.099922 190.967201-51.512427 4.974235-9.251914 4.990625-18.225205 0.045071-24.633527-2.364196-3.056655-9.485465-9.79277-24.551579-6.14609-56.781674 13.742657-95.760174-8.891343-137.025021-32.861092-35.577664-20.659056-52.921929-45.915387-102.865054-45.915388-77.682476-0.004097-102.402049 27.878663-110.219875 44.489495-7.78095 16.512494-5.437241 35.438353 6.121505 49.406366z m104.090175-75.150287c44.903331 0 58.477995 23.072421 93.45744 43.383198 42.645668 24.764644 86.750007 50.373351 150.849625 34.864718 4.130172-0.995667 5.654402-0.28272 5.670792-0.274525a1.548815 1.548815 0 0 1-0.602317-0.7867c0.151604 0.671972-0.307304 4.371918-5.273345 10.128756-6.613192 7.645736-45.874413 45.366337-169.283797 36.319293-103.713214-7.596567-137.541292-27.878663-164.45297-60.424257-6.879523-8.305416-8.272637-19.606026-3.622095-29.464354 4.765268-10.15334 23.412504-33.750227 93.256667-33.746129z"
        fill="#6E6E96" p-id="6480"></path>
    <path
        d="M636.806594 828.914919s9.141284 188.271116-342.345389 144.207751c-298.52377-37.433783-73.671128-282.904508 73.204025-422.150315 67.779077-64.267611 44.395254-109.810135 1.675834-87.864498l30.77552-381.553344c62.153356-17.192662 191.966965 49.283444 245.933729 134.791941 56.015461 88.729048 1.282484 204.144417-137.864986 384.704239-209.925839 272.390597-49.713671 274.091015 26.239706 198.141736 0 0 15.537315-20.863926 60.026809-10.427865 44.477202 10.427865 42.707128 44.4813 42.707128 44.4813"
        fill="#F8D584" p-id="6481"></path>
    <path
        d="M294.4694 973.126767c-300.900258-37.429686-73.671128-282.896313 73.204025-422.146218 67.779077-64.267611 44.399352-109.810135 1.675834-87.8604l104.213096-314.184007 1.581594-0.745725s273.197783 91.646392 58.813981 387.892011c-228.372303 315.568925-262.888742 376.775784-54.282264 347.89326 79.477134-11.009695 124.081356-33.647792 148.866486-57.449549l8.264442 2.40517c0-0.01639 9.182258 187.91874-342.337194 144.195458z"
        fill="#F2C16F" p-id="6482"></path>
    <path
        d="M530.397295 276.258536s80.083548 72.962279 16.012612 201.087762c-51.64764 103.299378-341.452158 349.376516-258.037428 396.840718 83.422924 47.460104 243.663774 85.28314 347.839993-45.44009l-0.135214 12.243011s-139.684229 174.544849-360.2469 50.479883c0 0-95.518428-39.986459 55.646696-187.775332 151.161027-147.79297 262.982982-290.431419 188.242435-409.640974l10.677806-17.794978z"
        fill="#E4BA74" p-id="6483"></path>
    <path
        d="M367.669328 550.972355c67.779077-64.267611 44.399352-109.810135 1.675833-87.860401L428.466447 284.891743c48.107493-15.967541 83.513066-13.132145 93.297641 16.381378 0 0 74.1874 105.475094-42.965264 254.378457-108.933293 138.446816-327.434976 293.619191-167.276074 355.903663 96.096161 37.37642 290.066751 16.008515 324.702014-82.808315l0.594122 0.167993s9.419907 185.988868-342.345389 144.207751c-315.138699-37.429686-73.68342-282.892215 73.195831-422.150315z"
        fill="#E6E0D1" p-id="6484"></path>
    <path
        d="M390.032899 442.428314l53.7537-162.06419a241.430694 241.430694 0 0 0-15.32425 4.523522l-59.117188 178.224308c39.629986-20.355849 62.563095 17.368849 11.571039 74.232471l7.428573-7.059808c67.791369-64.259416 44.403449-109.806038 1.688126-87.856303zM294.4694 973.126767c191.725219 22.773311 276.139712-22.113631 313.278482-67.680739-44.919721 37.056823-130.297101 81.271792-292.594842 61.98946-270.620523-32.139952-157.491499-224.414221 7.141756-372.662001-149.862153 134.959934-312.020583 344.586663-27.825396 378.35328z m341.74717-144.379841c-3.597511 10.235288-8.915927 19.63061-15.635652 28.231039a131.239501 131.239501 0 0 0 15.262789-14.254831c1.233315-8.530772 0.966985-13.80002 0.966985-13.80002l-0.594122-0.176188z"
        fill="#D1D1D1" p-id="6485"></path>
    <path
        d="M478.798824 555.651578c-25.002293 32.984015-62.862205 60.993794-95.043131 93.207498 5.683084-6.41242 177.535946-162.449345 108.093328-204.730344-41.40006-25.207162-46.796327 16.041294-99.087258 78.649461 35.012224-48.496745 12.726503-78.231527-23.408407-59.666239l59.125383-178.220211c48.107493-15.967541 83.504872-13.136242 93.293544 16.37728-0.008195 0.004097 91.679171 76.731881-42.973459 254.382555z"
        fill="#D9D1BB" p-id="6486"></path>
    <path
        d="M340.499514 311.85259c15.357029 27.841786 50.377448 37.970542 78.223332 22.621707 27.849981-15.352932 37.982834-50.369254 22.621707-78.219234-15.352932-27.845884-50.377448-37.978737-78.219234-22.625805"
        fill="#F8D584" p-id="6487"></path>
    <path
        d="M391.028566 343.66475c-21.040114 0-41.465618-11.136714-52.32371-30.820591a2.056891 2.056891 0 0 1 3.589316-1.983138c14.783394 26.813341 48.623764 36.593818 75.441202 21.818618a55.175496 55.175496 0 0 0 26.534718-33.197079 55.171398 55.171398 0 0 0-4.720197-42.235928 55.171398 55.171398 0 0 0-33.201176-26.534718 55.126327 55.126327 0 0 0-42.235929 4.712002 2.048697 2.048697 0 1 1-1.974943-3.589316 59.215525 59.215525 0 0 1 45.349947-5.060281 59.248304 59.248304 0 0 1 35.651417 28.493272 59.231915 59.231915 0 0 1 5.068476 45.354044 59.236012 59.236012 0 0 1-28.493272 35.64732 59.301571 59.301571 0 0 1-28.685849 7.395795z"
        fill="#D59758" p-id="6488"></path>
    <path
        d="M619.41316 858.481708s-69.442618 156.299158-377.30025 74.433243c0 0-156.299158-71.474925-28.480979-199.313591 153.402301-153.398203 212.867767-240.045776 243.491683-240.045775 36.962583 0 13.955721 35.249873-22.818382 72.032171-124.052674 124.044479-305.591773 270.976996-140.692188 333.617942 220.21849 83.652378 325.800116-40.72399 325.800116-40.72399z"
        fill="#F5F5F5" p-id="6489"></path>
    <path
        d="M443.176088 556.442374s-28.65307 16.242066-39.797979-23.613276l-29.984723 12.54212s46.784035 12.075018 46.784034 34.221427c-0.004097 0 0.20487 24.06399 22.998668-23.150271zM381.940548 620.673109s-28.65307 16.250261-39.793882-23.600984l-29.98882 12.538022s46.784035 12.07092 46.784034 34.213233c-0.004097-0.012292 0.20487 24.059892 22.998668-23.150271zM328.477762 681.638221s-28.648973 16.242066-39.793881-23.609179l-29.984723 12.538023s46.784035 12.075018 46.784034 34.213232c-0.004097-0.004097 0.20487 24.059892 22.99457-23.142076zM269.454815 741.406894s-28.657167 16.246164-39.79798-23.600984l-22.486493 12.54212s39.285805 12.066823 39.285805 34.205038c-0.004097-0.012292 0.200772 24.059892 22.998668-23.146174zM228.825065 818.991033s-40.379809 35.532593-76.363116 13.250969l26.317556 47.177385s4.769366-43.842106 67.111202-12.587192c-0.004097 0-10.382794 7.227801-17.065642-47.841162zM261.575528 881.558226s-5.560162 55.093548-34.315668 46.08338l31.668752 24.522898s12.718308-50.31189 34.68853-52.962903c-0.004097 0.004097-23.228122-14.484285-32.041614-17.643375z"
        fill="#E6E6E6" p-id="6490"></path>
    <path
        d="M374.360371 558.028066c48.341044-45.837537 51.696809-81.562707 39.875829-98.226806-9.68214-13.660709-29.050517-15.758574-49.33671-5.338903l13.673001 11.71035 59.117187-178.224309-6.166576 6.166577c30.763227-10.210704 54.347822-11.935706 68.197011-4.98243 6.269011 3.146798 10.460645 8.116936 12.808451 15.197231l0.446616 1.364432 0.819478 1.171854c2.823104 4.064614 68.24618 101.820219-42.649765 242.770542-26.288874 33.410143-59.494148 68.291251-91.593125 102.016894-75.010976 78.805162-145.863097 153.242502-132.984991 210.941992 5.539675 24.801521 26.202829 44.317404 61.415825 58.010892 71.077478 27.645111 184.354008 22.7897 257.881728-11.054766 40.814133-18.78245 68.311738-45.616278 79.514011-77.596431l-11.816882 6.146089 0.594122 0.159799-7.072101-8.866759c0.081948 1.798756 1.450477 45.40731-39.814369 83.660573-37.101895 34.393518-117.812344 71.061089-291.677026 50.410227-81.562707-9.686237-129.375188-34.065726-142.113982-72.466494-31.160675-94.02288 145.461553-261.466947 220.882268-332.970554zM293.318032 982.776128c145.916364 17.331973 249.428806-1.470964 307.660957-55.89254 47.701851-44.583734 45.661349-96.288738 45.542524-98.460356l-0.352375-6.969666-6.723823-1.897093-0.594122-0.167993-8.793005-2.474825-3.019779 8.620915c-9.424004 26.887094-33.381462 49.836592-69.295112 66.365476-69.331989 31.9064-175.937963 36.565136-242.704984 10.595859-29.206218-11.357974-45.395018-25.79309-49.488314-44.128924-10.616346-47.574831 59.895693-121.655699 128.092704-193.302715 32.414477-34.061629 65.93525-69.266431 92.789564-103.397715 120.250293-152.840958 46.47673-261.442362 43.276666-265.990469l1.278387 2.536286c-3.994958-12.058628-11.579233-20.958166-22.53976-26.460965-18.827521-9.448589-46.771742-8.133325-83.045963 3.908914l-4.630055 1.536522-1.536522 4.630054-59.117188 178.224308-7.490035 22.580734 21.163036-10.874481c11.177688-5.740448 20.822952-6.01907 24.584359-0.712947 6.133797 8.649597 1.405406 36.081644-37.396907 72.872137-129.067883 122.360451-256.845087 260.024664-225.938451 353.215773 15.320153 46.173523 68.573971 74.982294 158.278198 85.643711z"
        fill="#6E6E96" p-id="6491"></path>
    <path
        d="M627.444051 829.373827v-0.032779c0.081948 1.888898 1.421795 46.738963-40.777256 85.549471-53.47098 49.185107-154.107052 66.103243-291.033736 48.935166-77.035088-9.657556-122.450593-33.950999-135.000908-72.212457-21.822716-66.521177 50.004586-178.838917 213.486473-333.839201 48.181246-45.677738 51.56979-81.218526 39.838954-97.771994-7.621151-10.755657-24.477826-17.774491-48.890095-5.232371l13.623832 9.092115 30.771422-381.553344-6.842646 8.280831c55.663085-15.398003 182.288922 46.431659 235.514059 130.760107 49.516996 78.440494 12.288082 179.797707-137.369202 373.973167-129.629226 168.214377-112.416077 225.463153-90.617946 244.626661 30.353488 26.674029 93.359102 3.425421 130.919905-34.131285l0.479395-0.479395 0.409739-0.553148c0.409739-0.48759 13.259164-15.602873 50.369254-6.904107 36.442214 8.547162 35.495717 34.614777 35.487521 34.872912l18.716892 0.979277c0.758018-14.484285-8.702863-44.436228-49.93493-54.097881-20.40092-4.785755-38.032003-4.187536-52.41795 1.765977-4.79395 1.983138-9.038849 4.507132-12.624068 7.490034-1.188244 0.995667-2.282248 2.015917-3.224648 3.036168-0.122922 0.131117 0.622804-0.348278 0.479395-0.245843l-0.528564 0.401544-0.4712 0.475298c-34.430394 34.4222-85.602737 50.615097-105.286614 33.299514-21.839105-19.196287-8.846272-86.82376 93.092772-219.095805 131.677922-170.857195 200.751776-296.60619 138.373063-395.427117C600.266042 126.240682 466.08871 53.58161 397.621271 72.523858l-6.31818 1.74549-0.524466 6.531244-30.771423 381.553344-1.352139 16.78702 14.980069-7.694904c11.333389-5.822396 21.150743-6.060044 25.018682-0.59822 6.199356 8.743837 1.516035 36.384851-37.441978 73.326947-171.578337 162.666507-243.020483 278.233479-218.399248 353.285429 15.004654 45.739199 65.63614 74.330808 150.48086 84.963544 144.986255 18.176036 248.109445-0.040974 306.501394-54.142953 48.455771-44.899234 46.47673-97.595807 46.370198-99.820691l-18.720989 0.913719z"
        fill="#6E6E96" p-id="6492"></path>
    <path
        d="M231.685045 436.54036c32.295653 48.799952 170.955533 81.415201 256.492711-68.344517 58.191177-101.885777 77.563652-208.213128 13.857384-257.017178-63.702171-48.799952-173.196807-12.853522-244.548811 80.288418-71.356101 93.14194-70.085909 178.146458-25.801284 245.073277z"
        fill="#E4A846" p-id="6493"></path>
    <path
        d="M326.293852 487.688118h-0.012292c-43.682308-0.004097-85.131537-18.286665-103.135482-45.497453-50.996155-77.071964-41.686878-168.329104 26.211023-256.955717 50.127507-65.435368 120.840318-106.085605 184.542489-106.085605 28.247428 0 53.95857 8.264442 74.367685 23.895996 62.354128 47.767409 58.166593 148.788636-11.189981 270.227174-56.859524 99.546166-131.3993 114.415605-170.783442 114.415605zM433.895492 99.636308c-57.461841 0-121.942516 37.573095-168.279935 98.058812-79.686101 104.016422-57.789632 184.222892-25.387447 233.190837 11.571038 17.487674 43.436464 36.311098 86.05345 36.315195h0.012292c34.938471 0 101.262973-13.525495 152.988464-104.086077 49.25886-86.246028 79.468939-195.584963 16.520689-243.807182-17.036961-13.050197-37.868107-19.671584-61.907513-19.671585z"
        fill="#6E6E96" p-id="6494"></path>
    <path
        d="M209.481272 424.756257c90.167233 56.748895 201.509793 12.85762 272.865894-80.284321 71.352004-93.137843 76.428674-176.54028 19.687974-233.289174-68.221595-68.22979-230.855323-32.635736-313.901286 106.167553-60.248068 100.685241-14.939095 184.562975 21.347418 207.405942z"
        fill="#F8D584" p-id="6495"></path>
    <path
        d="M499.560315 122.409619c-65.959834-65.972127-223.20549-31.558122-303.498006 102.647893-58.248541 97.349963-14.443311 178.449665 20.646764 200.534613 87.180233 54.868191 194.83514 12.431491 263.827045-77.625112 68.98371-90.052506 73.896485-170.689202 19.024197-225.557394z m-39.613597 186.648549c-50.963376 34.68853-63.112146-22.634-70.516136-10.419671-12.341348 20.355849 6.256719 70.171954-13.156729 78.878915-42.354753 18.995514-88.368477 19.585539-128.891695-5.920733-28.272012-17.790881-63.566957-83.132009-16.635416-161.572503 64.697837-108.130204 191.385135-135.857263 244.532421-82.70588 44.210872 44.210872 40.248693 109.179137-15.332445 181.739872z"
        fill="#E4BA74" p-id="6496"></path>
    <path
        d="M203.744921 240.852962c77.469412-130.436412 229.179489-163.88753 292.807907-99.767425 18.827521 18.958638 30.316612 41.10095 34.373031 65.685309 6.252622-41.584443-5.396267-78.28889-34.373031-107.474621-63.632515-64.124202-215.338495-30.673085-292.807907 99.767425-25.010488 42.104812-30.484605 81.066923-25.916011 113.256043 3.007487-22.187384 10.94004-46.255471 25.916011-71.466731z"
        fill="#F8E4B5" p-id="6497"></path>
    <path
        d="M204.490647 432.684713c88.225069 55.527871 205.545726 21.593262 285.293288-82.5174 72.917208-95.174247 79.792633-184.698189 18.864397-245.614133-28.308889-28.317084-73.191733-41.019002-123.143052-34.840134-79.915555 9.88701-158.630574 64.611792-205.426901 142.822832C117.183394 317.670888 164.942608 407.797147 204.490647 432.684713z m-8.313611-210.524058c43.895372-73.363824 117.324754-124.650893 191.639174-133.845444 44.169898-5.461825 83.386047 5.289735 107.58525 29.493036 54.327335 54.323238 47.046268 132.792413-20.49516 220.956021-73.634252 96.116648-180.727815 128.215625-260.434404 78.055339-34.131285-21.482632-74.552068-100.64017-18.29486-194.658952z"
        fill="#6E6E96" p-id="6498"></path>
    <path
        d="M263.567521 340.023292a4.048224 8.89544 30.56 1 0 6.971829 4.116562 4.048224 8.89544 30.56 1 0-6.971829-4.116562Z"
        fill="#E4A846" p-id="6499"></path>
    <path
        d="M244.308258 325.777337a3.212356 7.068003 30.56 1 0 5.532301 3.266584 3.212356 7.068003 30.56 1 0-5.532301-3.266584Z"
        fill="#E4A846" p-id="6500"></path>
    <path
        d="M349.451012 175.634271a15.934762 23.432991 32.046 1 0 24.867088-39.724655 15.934762 23.432991 32.046 1 0-24.867088 39.724655Z"
        fill="#6E6E96" p-id="6501"></path>
    <path
        d="M411.278877 208.892936a15.934762 23.432991 24.526 1 0 19.454356-42.637405 15.934762 23.432991 24.526 1 0-19.454356 42.637405Z"
        fill="#6E6E96" p-id="6502"></path>
    <path
        d="M215.434784 530.067455c-1.167757 0-2.269956-0.036877-3.302499-0.106532a10.243483 10.243483 0 0 1 1.425893-20.437797c1.196439 0.081948 30.181398 1.466867 39.117812-25.317792 13.480423-40.392101 59.186844-45.493356 61.12491-45.690031a10.243483 10.243483 0 0 1 2.10606 20.376336c-1.450477 0.159798-34.553316 4.097393-43.797035 31.795771-10.477034 31.406518-39.937291 39.380045-56.675141 39.380045z"
        fill="#6E6E96" p-id="6503"></path>
</svg>